<svg xmlns="http://www.w3.org/2000/svg" style="pointer-events:none;display:block;width:100%;height:100%" viewBox="0 0 60 60"><g fill="none"><path fill="#FF4500" d="M28.486 59.97c-6.636-.57-11.563-2.328-16.322-5.825C4.444 48.472 0 39.647 0 29.987 0 15.112 10.507 2.798 25.274.367c6.029-.992 12.704.05 18.288 2.854 13.577 6.818 19.782 22.54 14.643 37.103-3.528 9.998-12.79 17.618-23.391 19.245-2.086.32-5.065.509-6.328.4z"/><path fill="#FDFDFD" d="M34.134 44c1.633-.384 2.816-.795 3.978-1.382 3.615-1.829 5.879-4.865 5.879-7.885 0-.913.02-.956.78-1.693.604-.584.84-.962 1.045-1.67.243-.842.244-.982.01-1.787-.657-2.26-3.005-3.277-5.108-2.213l-.812.41-.837-.514c-1.61-.991-4.474-1.961-6.32-2.142a36.106 36.106 0 0 1-1.418-.165l-.498-.074.214-1.07c.117-.588.362-1.749.544-2.58.182-.83.41-1.957.506-2.504.14-.79.235-.993.465-.993.159 0 1.295.214 2.525.477 1.23.262 2.263.477 2.294.477.03 0 .1.235.154.522.136.726.49 1.178 1.213 1.547 1.736.885 3.69-.295 3.69-2.228 0-2.396-2.954-3.442-4.456-1.578-.29.36-.435.426-.715.324-.193-.07-1.52-.367-2.95-.66-1.891-.386-2.668-.486-2.857-.367-.29.183-.253.048-1.05 3.79-.95 4.453-1.007 4.705-1.089 4.787-.043.043-.73.146-1.525.228-2.414.25-5.066 1.102-6.854 2.202l-.827.51-.812-.406c-2.12-1.056-4.473-.038-5.129 2.22-.234.805-.233.945.01 1.788.204.707.44 1.085 1.045 1.67.76.736.78.779.78 1.692 0 4.172 4.289 8.154 10.016 9.3 1.898.38 2.027.39 4.452.335 1.585-.036 2.727-.15 3.657-.369zm-6.687-3.03c-1.315-.297-2.803-.958-3.239-1.44-.348-.384-.199-.965.247-.965.173 0 .58.18.903.4 2.183 1.49 7.109 1.485 9.299-.01.705-.48 1.283-.468 1.354.032.033.235-.117.469-.477.744-1.752 1.335-5.265 1.873-8.087 1.238zm-4.012-5.908c-.819-.445-1.224-1.154-1.225-2.144 0-1.135.527-1.87 1.598-2.226.763-.253.854-.253 1.517 0 1.785.682 2.15 2.91.673 4.1-.771.62-1.73.721-2.563.27zm11.096.073c-.759-.395-1.183-.875-1.363-1.542-.332-1.233.293-2.437 1.507-2.9.663-.254.754-.254 1.517-.001 1.071.356 1.598 1.09 1.598 2.226-.001 1.008-.414 1.711-1.26 2.143-.76.387-1.354.41-1.999.074z"/></g></svg>